<?xml version="1.0" encoding="UTF-8"?>
<svg id="Cloud" xmlns="http://www.w3.org/2000/svg" version="1.1" xmlns:xlink="http://www.w3.org/1999/xlink" viewBox="0 0 512 512">
  <!-- Generator: Adobe Illustrator 30.2.1, SVG Export Plug-In . SVG Version: 2.1.1 Build 1)  -->
  <defs>
    <style>
      .st0 {
        fill: none;
      }

      .st0, .st1 {
        stroke: #231f20;
        stroke-miterlimit: 10;
        stroke-width: 10px;
      }

      .st1 {
        fill: url(#linear-gradient);
      }
    </style>
    <linearGradient id="linear-gradient" x1="256.54" y1="423.99" x2="256.54" y2="120.9" gradientTransform="translate(0 514) scale(1 -1)" gradientUnits="userSpaceOnUse">
      <stop offset="0" stop-color="#fff"/>
      <stop offset="1" stop-color="#d1d3d4"/>
    </linearGradient>
  </defs>
  <path class="st1" d="M501.11,317.15c0-36.16-25.76-66.39-60.25-74.05-3.42-48.2-44.35-86.26-94.35-86.26-10.42,0-20.44,1.66-29.82,4.71-17.03-41.92-58.76-71.54-107.55-71.54-63.92,0-115.74,50.85-115.74,113.57,0,1.59.04,3.16.11,4.73-46.07,6.24-81.55,45.03-81.55,91.95s37.89,88.29,86.21,92.47v.37h334.36v-.5c38.59-4.29,68.59-36.42,68.59-75.44h0Z"/>
  <path class="st0" d="M432,413.83c-12.83,13.27-24.83,19.27-36,18-16.28-1.86-20.58-18-36-18-16.29,0-19.72,18-36,18s-19.71-18-36-18-19.71,18-36,18-19.71-18-36-18-19.72,18-36,18-19.71-18-36-18c-15.42,0-19.72,16.14-36,18-11.17,1.27-23.17-4.73-36-18"/>
  <path class="st0" d="M432,449.83c-12.83,13.27-24.83,19.27-36,18-16.28-1.86-20.58-18-36-18-16.29,0-19.72,18-36,18s-19.71-18-36-18-19.71,18-36,18-19.71-18-36-18-19.72,18-36,18-19.71-18-36-18c-15.42,0-19.72,16.14-36,18-11.17,1.27-23.17-4.73-36-18"/>
  <path class="st0" d="M432,485.83c-12.83,13.27-24.83,19.27-36,18-16.28-1.86-20.58-18-36-18-16.29,0-19.72,18-36,18s-19.71-18-36-18-19.71,18-36,18-19.71-18-36-18-19.72,18-36,18-19.71-18-36-18c-15.42,0-19.72,16.14-36,18-11.17,1.27-23.17-4.73-36-18"/>
</svg>