<?xml version="1.0" encoding="UTF-8"?>
<svg id="Layer_1" xmlns="http://www.w3.org/2000/svg" version="1.1" xmlns:xlink="http://www.w3.org/1999/xlink" viewBox="0 0 512 512">
  <!-- Generator: Adobe Illustrator 30.2.1, SVG Export Plug-In . SVG Version: 2.1.1 Build 1)  -->
  <defs>
    <style>
      .st0 {
        fill: url(#linear-gradient2);
      }

      .st0, .st1, .st2 {
        stroke-width: 4px;
      }

      .st0, .st1, .st2, .st3 {
        stroke: #231f20;
        stroke-miterlimit: 10;
      }

      .st1 {
        fill: url(#linear-gradient3);
      }

      .st2 {
        fill: url(#linear-gradient1);
      }

      .st3 {
        fill: url(#linear-gradient);
        stroke-width: 10px;
      }
    </style>
    <linearGradient id="linear-gradient" x1="256.54" y1="657.92" x2="256.54" y2="961.01" gradientTransform="translate(0 -568)" gradientUnits="userSpaceOnUse">
      <stop offset="0" stop-color="#fff"/>
      <stop offset="1" stop-color="#d1d3d4"/>
    </linearGradient>
    <linearGradient id="linear-gradient1" x1="151.93" y1="973.21" x2="151.93" y2="1056.03" gradientTransform="translate(0 -568)" gradientUnits="userSpaceOnUse">
      <stop offset="0" stop-color="#dce9f7"/>
      <stop offset=".5" stop-color="#b9d6ef"/>
      <stop offset="1" stop-color="#78b7e3"/>
    </linearGradient>
    <linearGradient id="linear-gradient2" x1="256.01" y1="989.37" x2="256.01" y2="1072.19" gradientTransform="translate(0 -568)" gradientUnits="userSpaceOnUse">
      <stop offset="0" stop-color="#dce9f7"/>
      <stop offset=".5" stop-color="#b9d6ef"/>
      <stop offset="1" stop-color="#78b7e3"/>
    </linearGradient>
    <linearGradient id="linear-gradient3" x1="360.09" y1="973.21" x2="360.09" y2="1056.03" gradientTransform="translate(0 -568)" gradientUnits="userSpaceOnUse">
      <stop offset="0" stop-color="#dce9f7"/>
      <stop offset=".5" stop-color="#b9d6ef"/>
      <stop offset="1" stop-color="#78b7e3"/>
    </linearGradient>
  </defs>
  <g id="Cloud">
    <path class="st3" d="M501.11,317.06c0-36.16-25.76-66.39-60.25-74.05-3.42-48.2-44.35-86.26-94.35-86.26-10.42,0-20.44,1.66-29.82,4.71-17.03-41.92-58.76-71.54-107.55-71.54-63.92,0-115.74,50.85-115.74,113.57,0,1.59.04,3.16.11,4.73-46.07,6.24-81.55,45.03-81.55,91.95s37.89,88.29,86.21,92.47v.37h334.36v-.5c38.59-4.29,68.59-36.42,68.59-75.44h0Z"/>
  </g>
  <g id="Snow">
    <path class="st2" d="M186.74,460.8l-5.31-2.86,5.18-1.55c2.12-.63,3.32-2.87,2.69-4.99-.63-2.12-2.87-3.32-4.99-2.69l-12.85,3.86-11.06-5.96,11.05-5.94,12.86,3.87c2.12.63,4.35-.57,4.99-2.68h0c.63-2.12-.57-4.35-2.68-4.99l-5.18-1.56,5.34-2.87c1.95-1.05,2.68-3.48,1.63-5.43h0c-1.05-1.95-3.48-2.68-5.43-1.63l-5.33,2.86,1.56-5.19c.63-2.12-.57-4.35-2.68-4.99-2.12-.63-4.35.57-4.99,2.68l-3.87,12.87-11.71,6.3v-13.3l9.49-9.49c1.56-1.56,1.56-4.1,0-5.66h0c-1.38-1.38-3.53-1.54-5.09-.47-.23.14-.43.32-.63.51l-3.77,3.77v-6.04c0-2.21-1.8-4.01-4.01-4.01-.85,0-1.64.27-2.29.72-1.07.72-1.78,1.94-1.78,3.32v5.94l-3.78-3.78c-1.38-1.38-3.53-1.54-5.09-.47-.23.14-.43.32-.63.51h0c-1.56,1.56-1.56,4.1,0,5.66l9.5,9.5v13.22l-11.64-6.28-3.86-12.86c-.63-2.12-2.87-3.32-4.99-2.69h0c-2.12.63-3.32,2.87-2.69,4.99l1.55,5.19-5.33-2.87c-1.95-1.05-4.38-.33-5.43,1.63-1.05,1.95-.33,4.38,1.63,5.43l5.33,2.87-5.2,1.55c-2.12.63-3.32,2.87-2.69,4.99h0c.63,2.12,2.87,3.32,4.99,2.69l12.87-3.86,11.07,5.97-11.06,5.95-12.88-3.87c-2.12-.63-4.35.57-4.99,2.68-.63,2.12.57,4.35,2.68,4.99l5.2,1.56-5.35,2.87c-1.95,1.05-2.68,3.48-1.63,5.43s3.48,2.68,5.43,1.63l5.32-2.86-1.55,5.18c-.63,2.12.57,4.35,2.68,4.99h0c2.12.63,4.35-.57,4.99-2.68l3.87-12.85,11.67-6.28v13.29l-9.51,9.51c-1.56,1.56-1.56,4.1,0,5.66h0c1.38,1.38,3.53,1.54,5.09.47.23-.14.43-.32.63-.51l3.78-3.78v6.05c0,2.21,1.8,4.01,4.01,4.01.85,0,1.64-.27,2.29-.72,1.07-.72,1.78-1.94,1.78-3.32v-5.93l3.77,3.77c1.38,1.38,3.53,1.54,5.09.47.23-.14.43-.32.63-.51,1.56-1.56,1.56-4.1,0-5.66l-9.49-9.49v-13.32l11.69,6.3,3.86,12.88c.63,2.12,2.87,3.32,4.99,2.69h0c2.12-.63,3.32-2.87,2.69-4.99l-1.56-5.21,5.35,2.88c1.95,1.05,4.38.33,5.43-1.63h0c1.05-1.95.33-4.38-1.63-5.43h-.02Z"/>
    <path class="st0" d="M290.82,476.96l-5.31-2.86,5.18-1.55c2.12-.63,3.32-2.87,2.69-4.99-.63-2.12-2.87-3.32-4.99-2.69l-12.85,3.86-11.06-5.96,11.05-5.94,12.86,3.87c2.12.63,4.35-.57,4.99-2.68h0c.63-2.12-.57-4.35-2.68-4.99l-5.18-1.56,5.34-2.87c1.95-1.05,2.68-3.48,1.63-5.43h0c-1.05-1.95-3.48-2.68-5.43-1.63l-5.33,2.86,1.56-5.19c.63-2.12-.57-4.35-2.68-4.99-2.12-.63-4.35.57-4.99,2.68l-3.87,12.87-11.71,6.3v-13.3l9.49-9.49c1.56-1.56,1.56-4.1,0-5.66h0c-1.38-1.38-3.53-1.54-5.09-.47-.23.14-.43.32-.63.51l-3.77,3.77v-6.04c0-2.21-1.8-4.01-4.01-4.01-.85,0-1.64.27-2.29.72-1.07.72-1.78,1.94-1.78,3.32v5.94l-3.78-3.78c-1.38-1.38-3.53-1.54-5.09-.47-.23.14-.43.32-.63.51h0c-1.56,1.56-1.56,4.1,0,5.66l9.5,9.5v13.22l-11.64-6.28-3.86-12.86c-.63-2.12-2.87-3.32-4.99-2.69h0c-2.12.63-3.32,2.87-2.69,4.99l1.55,5.19-5.33-2.87c-1.95-1.05-4.38-.33-5.43,1.63-1.05,1.95-.33,4.38,1.63,5.43l5.33,2.87-5.2,1.55c-2.12.63-3.32,2.87-2.69,4.99h0c.63,2.12,2.87,3.32,4.99,2.69l12.87-3.86,11.07,5.97-11.06,5.95-12.88-3.87c-2.12-.63-4.35.57-4.99,2.68-.63,2.12.57,4.35,2.68,4.99l5.2,1.56-5.35,2.87c-1.95,1.05-2.68,3.48-1.63,5.43s3.48,2.68,5.43,1.63l5.32-2.86-1.55,5.18c-.63,2.12.57,4.35,2.68,4.99h0c2.12.63,4.35-.57,4.99-2.68l3.87-12.85,11.67-6.28v13.29l-9.51,9.51c-1.56,1.56-1.56,4.1,0,5.66h0c1.38,1.38,3.53,1.54,5.09.47.23-.14.43-.32.63-.51l3.78-3.78v6.05c0,2.21,1.8,4.01,4.01,4.01.85,0,1.64-.27,2.29-.72,1.07-.72,1.78-1.94,1.78-3.32v-5.93l3.77,3.77c1.38,1.38,3.53,1.54,5.09.47.23-.14.43-.32.63-.51,1.56-1.56,1.56-4.1,0-5.66l-9.49-9.49v-13.32l11.69,6.3,3.86,12.88c.63,2.12,2.87,3.32,4.99,2.69h0c2.12-.63,3.32-2.87,2.69-4.99l-1.56-5.21,5.35,2.88c1.95,1.05,4.38.33,5.43-1.63h0c1.05-1.95.33-4.38-1.63-5.43h-.02Z"/>
    <path class="st1" d="M394.9,460.8l-5.31-2.86,5.18-1.55c2.12-.63,3.32-2.87,2.69-4.99-.63-2.12-2.87-3.32-4.99-2.69l-12.85,3.86-11.06-5.96,11.05-5.94,12.86,3.87c2.12.63,4.35-.57,4.99-2.68h0c.63-2.12-.57-4.35-2.68-4.99l-5.18-1.56,5.34-2.87c1.95-1.05,2.68-3.48,1.63-5.43h0c-1.05-1.95-3.48-2.68-5.43-1.63l-5.33,2.86,1.56-5.19c.63-2.12-.57-4.35-2.68-4.99-2.12-.63-4.35.57-4.99,2.68l-3.87,12.87-11.71,6.3v-13.3l9.49-9.49c1.56-1.56,1.56-4.1,0-5.66h0c-1.38-1.38-3.53-1.54-5.09-.47-.23.14-.43.32-.63.51l-3.77,3.77v-6.04c0-2.21-1.8-4.01-4.01-4.01-.85,0-1.64.27-2.29.72-1.07.72-1.78,1.94-1.78,3.32v5.94l-3.78-3.78c-1.38-1.38-3.53-1.54-5.09-.47-.23.14-.43.32-.63.51h0c-1.56,1.56-1.56,4.1,0,5.66l9.5,9.5v13.22l-11.64-6.28-3.86-12.86c-.63-2.12-2.87-3.32-4.99-2.69h0c-2.12.63-3.32,2.87-2.69,4.99l1.55,5.19-5.33-2.87c-1.95-1.05-4.38-.33-5.43,1.63-1.05,1.95-.33,4.38,1.63,5.43l5.33,2.87-5.2,1.55c-2.12.63-3.32,2.87-2.69,4.99h0c.63,2.12,2.87,3.32,4.99,2.69l12.87-3.86,11.07,5.97-11.06,5.95-12.88-3.87c-2.12-.63-4.35.57-4.99,2.68-.63,2.12.57,4.35,2.68,4.99l5.2,1.56-5.35,2.87c-1.95,1.05-2.68,3.48-1.63,5.43s3.48,2.68,5.43,1.63l5.32-2.86-1.55,5.18c-.63,2.12.57,4.35,2.68,4.99h0c2.12.63,4.35-.57,4.99-2.68l3.87-12.85,11.67-6.28v13.29l-9.51,9.51c-1.56,1.56-1.56,4.1,0,5.66h0c1.38,1.38,3.53,1.54,5.09.47.23-.14.43-.32.63-.51l3.78-3.78v6.05c0,2.21,1.8,4.01,4.01,4.01.85,0,1.64-.27,2.29-.72,1.07-.72,1.78-1.94,1.78-3.32v-5.93l3.77,3.77c1.38,1.38,3.53,1.54,5.09.47.23-.14.43-.32.63-.51,1.56-1.56,1.56-4.1,0-5.66l-9.49-9.49v-13.32l11.69,6.3,3.86,12.88c.63,2.12,2.87,3.32,4.99,2.69h0c2.12-.63,3.32-2.87,2.69-4.99l-1.56-5.21,5.35,2.88c1.95,1.05,4.38.33,5.43-1.63h0c1.05-1.95.33-4.38-1.63-5.43h-.02Z"/>
  </g>
</svg>