<?xml version="1.0" encoding="UTF-8"?>
<svg id="Layer_1" xmlns="http://www.w3.org/2000/svg" version="1.1" xmlns:xlink="http://www.w3.org/1999/xlink" viewBox="0 0 512 512">
  <!-- Generator: Adobe Illustrator 30.2.1, SVG Export Plug-In . SVG Version: 2.1.1 Build 1)  -->
  <defs>
    <style>
      .st0 {
        fill: url(#linear-gradient1);
      }

      .st0, .st1 {
        stroke-width: 7px;
      }

      .st0, .st1, .st2 {
        stroke: #231f20;
        stroke-miterlimit: 10;
      }

      .st1 {
        fill: #1c75bc;
      }

      .st2 {
        fill: url(#linear-gradient);
        stroke-width: 10px;
      }
    </style>
    <linearGradient id="linear-gradient" x1="256.54" y1="121" x2="256.54" y2="424.09" gradientTransform="translate(0 2)" gradientUnits="userSpaceOnUse">
      <stop offset="0" stop-color="#fff"/>
      <stop offset="1" stop-color="#d1d3d4"/>
    </linearGradient>
    <linearGradient id="linear-gradient1" x1="134.08" y1="292.12" x2="134.08" y2="490.08" gradientTransform="translate(0 2)" gradientUnits="userSpaceOnUse">
      <stop offset="0" stop-color="#fff7a9"/>
      <stop offset="0" stop-color="#fff100"/>
      <stop offset="1" stop-color="gold"/>
    </linearGradient>
  </defs>
  <g id="Cloud">
    <path class="st2" d="M501.11,350.14c0-36.16-25.76-66.39-60.25-74.05-3.42-48.2-44.35-86.26-94.35-86.26-10.42,0-20.44,1.66-29.82,4.71-17.03-41.92-58.76-71.54-107.55-71.54-63.92,0-115.74,50.85-115.74,113.57,0,1.59.04,3.16.11,4.73-46.07,6.24-81.55,45.03-81.55,91.95s37.89,88.29,86.21,92.47v.37h334.36v-.5c38.59-4.29,68.59-36.42,68.59-75.44h0Z"/>
  </g>
  <g id="Layer_6">
    <path class="st1" d="M311.57,498.88h0c-4.6-1.89-6.8-7.15-4.91-11.74l15.38-37.47c1.89-4.6,7.15-6.8,11.74-4.91h0c4.6,1.89,6.8,7.15,4.91,11.74l-15.38,37.47c-1.89,4.6-7.15,6.8-11.74,4.91Z"/>
    <path class="st1" d="M257.57,498.89h0c-4.6-1.89-6.8-7.15-4.91-11.74l15.38-37.47c1.89-4.6,7.15-6.8,11.74-4.91h0c4.6,1.89,6.8,7.15,4.91,11.74l-15.38,37.47c-1.89,4.6-7.15,6.8-11.74,4.91Z"/>
    <path class="st1" d="M203.57,498.89h0c-4.6-1.89-6.8-7.15-4.91-11.74l15.38-37.47c1.89-4.6,7.15-6.8,11.74-4.91h0c4.6,1.89,6.8,7.15,4.91,11.74l-15.38,37.47c-1.89,4.6-7.15,6.8-11.74,4.91Z"/>
    <path class="st1" d="M149.57,498.88h0c-4.6-1.89-6.8-7.15-4.91-11.74l15.38-37.47c1.89-4.6,7.15-6.8,11.74-4.91h0c4.6,1.89,6.8,7.15,4.91,11.74l-15.38,37.47c-1.89,4.6-7.15,6.8-11.74,4.91Z"/>
  </g>
  <g id="Lightning">
    <polygon class="st0" points="169.17 381.51 143.73 381.21 154.62 294.12 99 405.35 124.13 405.35 112.26 492.08 169.17 381.51"/>
  </g>
</svg>