<?xml version="1.0" encoding="UTF-8"?>
<svg id="Layer_1" xmlns="http://www.w3.org/2000/svg" version="1.1" xmlns:xlink="http://www.w3.org/1999/xlink" viewBox="0 0 512 512">
  <!-- Generator: Adobe Illustrator 30.2.1, SVG Export Plug-In . SVG Version: 2.1.1 Build 1)  -->
  <defs>
    <style>
      .st0 {
        fill: url(#linear-gradient2);
      }

      .st0, .st1, .st2 {
        stroke-width: 4px;
      }

      .st0, .st1, .st2, .st3 {
        stroke: #231f20;
        stroke-miterlimit: 10;
      }

      .st1 {
        fill: url(#linear-gradient3);
      }

      .st2 {
        fill: url(#linear-gradient1);
      }

      .st3 {
        fill: url(#linear-gradient);
        stroke-width: 10px;
      }
    </style>
    <linearGradient id="linear-gradient" x1="256.54" y1="422.08" x2="256.54" y2="118.99" gradientTransform="translate(0 512) scale(1 -1)" gradientUnits="userSpaceOnUse">
      <stop offset="0" stop-color="#fff"/>
      <stop offset="1" stop-color="#d1d3d4"/>
    </linearGradient>
    <linearGradient id="linear-gradient1" x1="140.77" y1="111.75" x2="140.77" y2="20.05" gradientTransform="translate(0 512) scale(1 -1)" gradientUnits="userSpaceOnUse">
      <stop offset="0" stop-color="#dce9f7"/>
      <stop offset=".5" stop-color="#b9d6ef"/>
      <stop offset="1" stop-color="#78b7e3"/>
    </linearGradient>
    <linearGradient id="linear-gradient2" x1="256.01" y1="93.85" x2="256.01" y2="2.15" gradientTransform="translate(0 512) scale(1 -1)" gradientUnits="userSpaceOnUse">
      <stop offset="0" stop-color="#dce9f7"/>
      <stop offset=".5" stop-color="#b9d6ef"/>
      <stop offset="1" stop-color="#78b7e3"/>
    </linearGradient>
    <linearGradient id="linear-gradient3" x1="371.25" y1="111.75" x2="371.25" y2="20.05" gradientTransform="translate(0 512) scale(1 -1)" gradientUnits="userSpaceOnUse">
      <stop offset="0" stop-color="#dce9f7"/>
      <stop offset=".5" stop-color="#b9d6ef"/>
      <stop offset="1" stop-color="#78b7e3"/>
    </linearGradient>
  </defs>
  <g id="Cloud">
    <path class="st3" d="M501.11,317.06c0-36.16-25.76-66.39-60.25-74.05-3.42-48.2-44.35-86.26-94.35-86.26-10.42,0-20.44,1.66-29.82,4.71-17.03-41.92-58.76-71.54-107.55-71.54-63.92,0-115.74,50.85-115.74,113.57,0,1.59.04,3.16.11,4.73-46.07,6.24-81.55,45.03-81.55,91.95s37.89,88.29,86.21,92.47v.37h334.36v-.5c38.59-4.29,68.59-36.42,68.59-75.44h0Z"/>
  </g>
  <g id="Snow">
    <path class="st2" d="M179.31,461.8l-5.88-3.17,5.74-1.72c2.35-.7,3.68-3.18,2.98-5.52-.7-2.35-3.18-3.68-5.52-2.98l-14.23,4.27-12.25-6.6,12.24-6.58,14.24,4.28c2.35.7,4.82-.63,5.52-2.97h0c.7-2.35-.63-4.82-2.97-5.52l-5.74-1.73,5.91-3.18c2.16-1.16,2.97-3.85,1.8-6.01h0c-1.16-2.16-3.85-2.97-6.01-1.8l-5.9,3.17,1.73-5.75c.7-2.35-.63-4.82-2.97-5.52-2.35-.7-4.82.63-5.52,2.97l-4.28,14.25-12.97,6.98v-14.73l10.51-10.51c1.73-1.73,1.73-4.54,0-6.27h0c-1.53-1.53-3.91-1.71-5.64-.52-.25.16-.48.35-.7.57l-4.17,4.17v-6.69c0-2.45-1.99-4.44-4.44-4.44-.94,0-1.82.3-2.54.8-1.19.8-1.97,2.15-1.97,3.68v6.58l-4.18-4.18c-1.53-1.53-3.91-1.71-5.64-.52-.25.16-.48.35-.7.57h0c-1.73,1.73-1.73,4.54,0,6.27l10.52,10.52v14.64l-12.89-6.95-4.27-14.24c-.7-2.35-3.18-3.68-5.52-2.98h0c-2.35.7-3.68,3.18-2.98,5.52l1.72,5.75-5.9-3.18c-2.16-1.16-4.85-.36-6.01,1.8-1.16,2.16-.36,4.85,1.8,6.01l5.9,3.18-5.76,1.72c-2.35.7-3.68,3.18-2.98,5.52h0c.7,2.35,3.18,3.68,5.52,2.98l14.25-4.27,12.26,6.61-12.25,6.59-14.26-4.28c-2.35-.7-4.82.63-5.52,2.97-.7,2.35.63,4.82,2.97,5.52l5.76,1.73-5.92,3.18c-2.16,1.16-2.97,3.85-1.8,6.01s3.85,2.97,6.01,1.8l5.89-3.17-1.72,5.73c-.7,2.35.63,4.82,2.97,5.52h0c2.35.7,4.82-.63,5.52-2.97l4.28-14.23,12.92-6.95v14.72l-10.53,10.53c-1.73,1.73-1.73,4.54,0,6.27h0c1.53,1.53,3.91,1.71,5.64.52.25-.16.48-.35.7-.57l4.19-4.19v6.7c0,2.45,1.99,4.44,4.44,4.44.94,0,1.82-.3,2.54-.8,1.19-.8,1.97-2.15,1.97-3.68v-6.57l4.17,4.17c1.53,1.53,3.91,1.71,5.64.52.25-.16.48-.35.7-.57,1.73-1.73,1.73-4.54,0-6.27l-10.51-10.51v-14.75l12.94,6.97,4.27,14.26c.7,2.35,3.18,3.68,5.52,2.98h0c2.35-.7,3.68-3.18,2.98-5.52l-1.73-5.77,5.92,3.19c2.16,1.16,4.85.36,6.01-1.8h0c1.16-2.16.36-4.85-1.8-6.01h-.02Z"/>
    <path class="st0" d="M294.55,479.7l-5.88-3.17,5.74-1.72c2.35-.7,3.68-3.18,2.98-5.52-.7-2.35-3.18-3.68-5.52-2.98l-14.23,4.27-12.25-6.6,12.24-6.58,14.24,4.28c2.35.7,4.82-.63,5.52-2.97h0c.7-2.35-.63-4.82-2.97-5.52l-5.74-1.73,5.91-3.18c2.16-1.16,2.97-3.85,1.8-6.01h0c-1.16-2.16-3.85-2.97-6.01-1.8l-5.9,3.17,1.73-5.75c.7-2.35-.63-4.82-2.97-5.52-2.35-.7-4.82.63-5.52,2.97l-4.28,14.25-12.97,6.98v-14.73l10.51-10.51c1.73-1.73,1.73-4.54,0-6.27h0c-1.53-1.53-3.91-1.71-5.64-.52-.25.16-.48.35-.7.57l-4.17,4.17v-6.69c0-2.45-1.99-4.44-4.44-4.44-.94,0-1.82.3-2.54.8-1.19.8-1.97,2.15-1.97,3.68v6.58l-4.18-4.18c-1.53-1.53-3.91-1.71-5.64-.52-.25.16-.48.35-.7.57h0c-1.73,1.73-1.73,4.54,0,6.27l10.52,10.52v14.64l-12.89-6.95-4.27-14.24c-.7-2.35-3.18-3.68-5.52-2.98h0c-2.35.7-3.68,3.18-2.98,5.52l1.72,5.75-5.9-3.18c-2.16-1.16-4.85-.36-6.01,1.8-1.16,2.16-.36,4.85,1.8,6.01l5.9,3.18-5.76,1.72c-2.35.7-3.68,3.18-2.98,5.52h0c.7,2.35,3.18,3.68,5.52,2.98l14.25-4.27,12.26,6.61-12.25,6.59-14.26-4.28c-2.35-.7-4.82.63-5.52,2.97-.7,2.35.63,4.82,2.97,5.52l5.76,1.73-5.92,3.18c-2.16,1.16-2.97,3.85-1.8,6.01s3.85,2.97,6.01,1.8l5.89-3.17-1.72,5.73c-.7,2.35.63,4.82,2.97,5.52h0c2.35.7,4.82-.63,5.52-2.97l4.28-14.23,12.92-6.95v14.72l-10.53,10.53c-1.73,1.73-1.73,4.54,0,6.27h0c1.53,1.53,3.91,1.71,5.64.52.25-.16.48-.35.7-.57l4.19-4.19v6.7c0,2.45,1.99,4.44,4.44,4.44.94,0,1.82-.3,2.54-.8,1.19-.8,1.97-2.15,1.97-3.68v-6.57l4.17,4.17c1.53,1.53,3.91,1.71,5.64.52.25-.16.48-.35.7-.57,1.73-1.73,1.73-4.54,0-6.27l-10.51-10.51v-14.75l12.94,6.97,4.27,14.26c.7,2.35,3.18,3.68,5.52,2.98h0c2.35-.7,3.68-3.18,2.98-5.52l-1.73-5.77,5.92,3.19c2.16,1.16,4.85.36,6.01-1.8h0c1.16-2.16.36-4.85-1.8-6.01h-.02Z"/>
    <path class="st1" d="M409.79,461.8l-5.88-3.17,5.74-1.72c2.35-.7,3.68-3.18,2.98-5.52-.7-2.35-3.18-3.68-5.52-2.98l-14.23,4.27-12.25-6.6,12.24-6.58,14.24,4.28c2.35.7,4.82-.63,5.52-2.97h0c.7-2.35-.63-4.82-2.97-5.52l-5.74-1.73,5.91-3.18c2.16-1.16,2.97-3.85,1.8-6.01h0c-1.16-2.16-3.85-2.97-6.01-1.8l-5.9,3.17,1.73-5.75c.7-2.35-.63-4.82-2.97-5.52-2.35-.7-4.82.63-5.52,2.97l-4.28,14.25-12.97,6.98v-14.73l10.51-10.51c1.73-1.73,1.73-4.54,0-6.27h0c-1.53-1.53-3.91-1.71-5.64-.52-.25.16-.48.35-.7.57l-4.17,4.17v-6.69c0-2.45-1.99-4.44-4.44-4.44-.94,0-1.82.3-2.54.8-1.19.8-1.97,2.15-1.97,3.68v6.58l-4.18-4.18c-1.53-1.53-3.91-1.71-5.64-.52-.25.16-.48.35-.7.57h0c-1.73,1.73-1.73,4.54,0,6.27l10.52,10.52v14.64l-12.89-6.95-4.27-14.24c-.7-2.35-3.18-3.68-5.52-2.98h0c-2.35.7-3.68,3.18-2.98,5.52l1.72,5.75-5.9-3.18c-2.16-1.16-4.85-.36-6.01,1.8-1.16,2.16-.36,4.85,1.8,6.01l5.9,3.18-5.76,1.72c-2.35.7-3.68,3.18-2.98,5.52h0c.7,2.35,3.18,3.68,5.52,2.98l14.25-4.27,12.26,6.61-12.25,6.59-14.26-4.28c-2.35-.7-4.82.63-5.52,2.97-.7,2.35.63,4.82,2.97,5.52l5.76,1.73-5.92,3.18c-2.16,1.16-2.97,3.85-1.8,6.01s3.85,2.97,6.01,1.8l5.89-3.17-1.72,5.73c-.7,2.35.63,4.82,2.97,5.52h0c2.35.7,4.82-.63,5.52-2.97l4.28-14.23,12.92-6.95v14.72l-10.53,10.53c-1.73,1.73-1.73,4.54,0,6.27h0c1.53,1.53,3.91,1.71,5.64.52.25-.16.48-.35.7-.57l4.19-4.19v6.7c0,2.45,1.99,4.44,4.44,4.44.94,0,1.82-.3,2.54-.8,1.19-.8,1.97-2.15,1.97-3.68v-6.57l4.17,4.17c1.53,1.53,3.91,1.71,5.64.52.25-.16.48-.35.7-.57,1.73-1.73,1.73-4.54,0-6.27l-10.51-10.51v-14.75l12.94,6.97,4.27,14.26c.7,2.35,3.18,3.68,5.52,2.98h0c2.35-.7,3.68-3.18,2.98-5.52l-1.73-5.77,5.92,3.19c2.16,1.16,4.85.36,6.01-1.8h0c1.16-2.16.36-4.85-1.8-6.01h-.02Z"/>
  </g>
</svg>